<?xml version="1.0" encoding="UTF-8"?>
<!DOCTYPE svg PUBLIC "-//W3C//DTD SVG 1.1//EN" "http://www.w3.org/Graphics/SVG/1.1/DTD/svg11.dtd">
<!-- Creator: CorelDRAW 2018 (64-Bit) -->
<svg xmlns="http://www.w3.org/2000/svg" xml:space="preserve" width="60mm" height="60mm" version="1.1" style="shape-rendering:geometricPrecision; text-rendering:geometricPrecision; image-rendering:optimizeQuality; fill-rule:evenodd; clip-rule:evenodd"
viewBox="0 0 6000 6000"
 xmlns:xlink="http://www.w3.org/1999/xlink">
 <defs>
  <style type="text/css">
   <![CDATA[
    .fil0 {fill:#FEFEFE}
    .fil1 {fill:url(#id0)}
   ]]>
  </style>
  <linearGradient id="id0" gradientUnits="userSpaceOnUse" x1="2265.47" y1="3075.7" x2="5056.09" y2="3075.7">
   <stop offset="0" style="stop-opacity:1; stop-color:#2F318B"/>
   <stop offset="1" style="stop-opacity:1; stop-color:#00A2E9"/>
  </linearGradient>
 </defs>
 <g id="Layer_x0020_1">
  <metadata id="CorelCorpID_0Corel-Layer"/>
  <rect class="fil0" x="-0.02" y="0" width="6000" height="6000"/>
  <path class="fil1" d="M2993.16 2287.06l213.07 1432.42 -380.58 0 -20.22 -257.14 -134.32 0 -20.21 257.14 -385.43 0 188.93 -1432.42 538.76 0zm1672.83 2874.73c0,0 -440.95,-1187.13 -1661.98,-1187.13 -1153.36,0 -1096.28,-873.4 -1086.4,-970.23l1.03 0 -0.55 -4.51 0.53 -4.35 -0.99 0c-9.88,-96.85 -66.98,-970.24 1086.37,-970.24 1221.04,0 1661.99,-1187.1 1661.99,-1187.1 -2185.56,-23.5 -3086.08,550.84 -3445.59,1113.3l-0.02 -0.03 -0.3 0.52c-122.4,191.64 -181.92,381.81 -208.14,546.54 -81.32,329.16 -118.51,772.53 56.24,1231.97 42.71,127.51 108.17,262.23 206.09,396.12l3.35 5.09 0.12 -0.32c394.07,534.5 1310.14,1052.68 3388.25,1030.37zm390.1 -1442.31l0 173.84 -279.78 0c-67.31,0 -114.99,-5.42 -142.46,-15.99 -27.47,-10.57 -46.19,-26.26 -55.83,-46.77 -9.67,-20.54 -14.5,-57.65 -14.5,-111.08 -84.51,-2.4 -156.94,-24.44 -217.9,-66.4 -60.98,-41.64 -101.11,-95.07 -120.43,-159.36 -19.63,-64.59 -29.27,-161.17 -29.27,-289.75l0 -442.76c0,-97.49 5.72,-171.43 17.2,-222.43 11.46,-51.02 35.31,-99.01 71.21,-143.98 35.92,-45.26 82.11,-79.38 138.55,-102.31 56.43,-22.94 119.22,-34.42 188.03,-34.42 82.99,0 157.24,14.19 222.14,42.57 65.19,28.36 113.79,64.28 145.77,107.74 31.99,43.76 53.12,89.04 62.78,135.82 9.66,47.09 14.49,116.81 14.49,209.17l0 465.4c0,127.36 -6.34,213.98 -18.71,259.26 -12.38,45.58 -35.92,81.48 -70.93,108.35 -35.32,26.86 -82.09,47.39 -140.35,61.57 1.82,31.39 8.45,51.32 19.93,59.46 11.46,8.15 38.63,12.07 81.48,12.07l128.58 0zm-373.04 -1063.3c0,-66.4 -3.62,-108.95 -10.88,-127.67 -7.23,-18.42 -22.03,-27.77 -44.37,-27.77 -19,0 -33.49,7.55 -43.76,22.63 -9.95,14.8 -15.08,59.17 -15.08,132.81l0 668.53c0,83 3.32,134.3 9.95,153.62 6.65,19.61 22.03,29.27 46.18,29.27 24.75,0 40.76,-11.16 47.69,-33.49 6.95,-22.34 10.27,-75.76 10.27,-159.97l0 -657.96zm-625.07 65.49l-345.88 0 0 -105.94c0,-49.5 -4.53,-81.18 -13.28,-94.76 -8.75,-13.59 -23.25,-20.23 -43.76,-20.23 -22.34,0 -39.26,9.05 -50.72,27.47 -11.46,18.11 -17.2,45.58 -17.2,82.69 0,47.68 6.63,83.6 19.63,107.76 12.67,23.83 47.68,53.12 105.33,87.52 165.09,98.69 269.21,179.89 312.08,242.97 43.16,63.07 64.58,164.79 64.58,304.83 0,102.02 -12.06,177.17 -35.92,225.76 -23.85,48.3 -69.71,88.74 -138.22,121.33 -68.22,32.91 -147.6,49.2 -238.44,49.2 -99.61,0 -184.41,-19.02 -255.04,-56.74 -70.32,-37.74 -116.2,-85.73 -138.24,-143.97 -21.73,-58.55 -32.58,-141.55 -32.58,-248.7l0 -93.86 345.88 0 0 174.14c0,53.73 4.83,88.14 14.49,103.52 9.64,15.4 26.86,22.94 51.6,22.94 24.75,0 43.16,-9.66 55.23,-29.27 12.08,-19.32 18.11,-48.29 18.11,-86.31 0,-84.21 -11.46,-139.45 -34.4,-165.11 -23.86,-25.95 -81.79,-69.41 -174.15,-130.38 -92.35,-61.26 -153.32,-105.94 -183.52,-133.71 -29.87,-27.77 -54.92,-66.1 -74.54,-114.99 -19.61,-48.9 -29.58,-111.36 -29.58,-187.43 0,-109.56 13.89,-189.84 41.97,-240.54 28.05,-50.72 73.03,-90.25 135.51,-118.92 62.48,-28.68 137.62,-42.87 226.05,-42.87 96.58,0 178.69,15.7 246.89,46.79 67.92,31.39 112.88,70.63 134.91,118.31 22.03,47.39 33.21,127.98 33.21,241.76l0 56.74zm-1262.51 487.13c-17.81,-162.37 -36.53,-363.38 -56.44,-603.34 -36.83,275.27 -60.07,476.28 -70.02,603.34l126.46 0z"/>
 </g>
</svg>
