<?xml version="1.0" encoding="UTF-8"?>
<!DOCTYPE svg PUBLIC "-//W3C//DTD SVG 1.1//EN" "http://www.w3.org/Graphics/SVG/1.1/DTD/svg11.dtd">
<!-- Creator: CorelDRAW 2018 (64-Bit) -->
<svg xmlns="http://www.w3.org/2000/svg" xml:space="preserve" width="100mm" height="100mm" version="1.1" style="shape-rendering:geometricPrecision; text-rendering:geometricPrecision; image-rendering:optimizeQuality; fill-rule:evenodd; clip-rule:evenodd"
viewBox="0 0 10000 10000"
 xmlns:xlink="http://www.w3.org/1999/xlink">
 <defs>
  <style type="text/css">
   <![CDATA[
    .fil0 {fill:#FEFEFE}
    .fil1 {fill:url(#id0)}
   ]]>
  </style>
  <linearGradient id="id0" gradientUnits="userSpaceOnUse" x1="3392.4" y1="5157.5" x2="9500" y2="5157.5">
   <stop offset="0" style="stop-opacity:1; stop-color:#2F318B"/>
   <stop offset="1" style="stop-opacity:1; stop-color:#00A2E9"/>
  </linearGradient>
 </defs>
 <g id="Layer_x0020_1">
  <metadata id="CorelCorpID_0Corel-Layer"/>
  <rect class="fil0" x="-0.01" y="-0.01" width="10000" height="10000"/>
  <path class="fil1" d="M4985.04 3516.39l466.33 2980.8 -832.95 0 -44.24 -535.1 -293.97 0 -44.25 535.1 -843.56 0 413.51 -2980.8 1179.13 0zm3661.17 5982.14c0,0 -965.06,-2470.33 -3637.41,-2470.33 -2524.26,0 -2399.34,-1817.5 -2377.73,-2019l2.27 0 -1.21 -9.39 1.17 -9.05 -2.19 0c-21.61,-201.53 -146.57,-2019 2377.65,-2019 2672.39,0 3637.45,-2470.29 3637.45,-2470.29 -4783.34,-48.9 -6754.22,1146.26 -7541.06,2316.72l-0.04 -0.07 -0.66 1.07c-267.88,398.81 -398.14,794.54 -455.53,1137.33 -177.99,684.96 -259.37,1607.58 123.09,2563.67 93.47,265.34 236.73,545.66 451.04,824.28l7.33 10.61 0.28 -0.67c862.45,1112.26 2867.39,2190.57 7415.55,2144.12zm853.79 -3001.34l0 361.75 -612.33 0c-147.32,0 -251.68,-11.28 -311.8,-33.28 -60.12,-22 -101.09,-54.64 -122.19,-97.33 -21.15,-42.74 -31.72,-119.97 -31.72,-231.14 -184.97,-5.01 -343.48,-50.86 -476.91,-138.18 -133.47,-86.66 -221.29,-197.83 -263.58,-331.63 -42.96,-134.39 -64.06,-335.37 -64.06,-602.94l0 -921.36c0,-202.88 12.52,-356.74 37.64,-462.87 25.09,-106.17 77.29,-206.03 155.87,-299.62 78.61,-94.18 179.7,-165.18 303.21,-212.89 123.52,-47.74 260.93,-71.63 411.53,-71.63 181.65,0 344.14,29.53 486.19,88.59 142.68,59.01 249.03,133.76 319.02,224.2 70.03,91.07 116.26,185.29 137.41,282.62 21.15,98.01 31.72,243.09 31.72,435.28l0 968.47c0,265.04 -13.89,445.29 -40.97,539.51 -27.07,94.85 -78.61,169.56 -155.23,225.46 -77.29,55.9 -179.66,98.63 -307.16,128.13 3.98,65.32 18.49,106.79 43.61,123.74 25.09,16.96 84.55,25.12 178.34,25.12l281.41 0zm-816.45 -2212.68c0,-138.17 -7.92,-226.72 -23.8,-265.67 -15.84,-38.32 -48.22,-57.79 -97.11,-57.79 -41.59,0 -73.31,15.72 -95.78,47.11 -21.77,30.79 -33,123.11 -33,276.35l0 1391.17c0,172.72 7.25,279.48 21.77,319.69 14.55,40.8 48.22,60.91 101.08,60.91 54.15,0 89.19,-23.22 104.37,-69.7 15.21,-46.48 22.47,-157.66 22.47,-332.89l0 -1369.18zm-1368.04 136.29l-756.99 0 0 -220.45c0,-103.02 -9.91,-168.93 -29.07,-197.2 -19.15,-28.27 -50.87,-42.1 -95.78,-42.1 -48.88,0 -85.91,18.84 -110.99,57.16 -25.09,37.69 -37.65,94.85 -37.65,172.08 0,99.23 14.51,173.98 42.95,224.24 27.74,49.6 104.37,110.54 230.54,182.14 361.31,205.35 589.19,374.32 683.02,505.6 94.46,131.24 141.35,342.91 141.35,634.32 0,212.3 -26.41,368.69 -78.61,469.81 -52.2,100.49 -152.59,184.66 -302.52,252.47 -149.31,68.47 -323.04,102.38 -521.85,102.38 -218.02,0 -403.61,-39.58 -558.18,-118.07 -153.91,-78.53 -254.33,-178.39 -302.56,-299.58 -47.55,-121.86 -71.31,-294.57 -71.31,-517.55l0 -195.3 756.99 0 0 362.38c0,111.8 10.57,183.39 31.72,215.41 21.1,32.05 58.79,47.74 112.94,47.74 54.16,0 94.46,-20.11 120.87,-60.91 26.45,-40.21 39.64,-100.49 39.64,-179.62 0,-175.23 -25.09,-290.19 -75.3,-343.57 -52.2,-54.01 -179,-144.45 -381.13,-271.31 -202.13,-127.5 -335.56,-220.46 -401.65,-278.25 -65.39,-57.79 -120.2,-137.55 -163.16,-239.3 -42.91,-101.75 -64.72,-231.73 -64.72,-390.01 0,-227.99 30.39,-395.07 91.84,-500.56 61.41,-105.54 159.84,-187.81 296.58,-247.46 136.75,-59.69 301.19,-89.22 494.74,-89.22 211.38,0 391.08,32.68 540.35,97.38 148.64,65.32 247.04,146.97 295.26,246.2 48.22,98.59 72.68,266.3 72.68,503.08l0 118.07zm-2763.14 1013.69c-38.98,-337.89 -79.94,-756.18 -123.52,-1255.51 -80.6,572.82 -131.48,991.1 -153.25,1255.51l276.77 0z"/>
 </g>
</svg>
